<svg width="48" height="50" viewBox="0 0 48 50" fill="none" xmlns="http://www.w3.org/2000/svg">
<path d="M45.7166 27.2129L45.7165 27.2129L24.8342 48.0952C24.1805 48.7116 23.4536 49 22.6107 48.9999L22.6106 48.9999C21.7948 48.9999 21.0776 48.7154 20.4198 48.0951L18.0232 45.6985L18.023 45.6984C17.3947 45.0703 17.0959 44.3494 17.0959 43.4859C17.0959 42.5947 17.3971 41.8976 18.0037 41.3231L18.0142 41.3132L18.0244 41.303L27.4272 31.8679L29.1273 30.162L26.7189 30.162L4.12577 30.162C3.28855 30.162 2.66521 29.8748 2.16953 29.3029C1.6434 28.6953 1.37155 27.9649 1.37155 27.0537L1.37155 22.9458C1.37155 22.0348 1.64344 21.3039 2.16974 20.6964C2.6654 20.1249 3.28836 19.8382 4.12577 19.8382L26.719 19.8382L29.1274 19.8382L27.4273 18.1323L18.0245 8.69715L18.0145 8.68709L18.0042 8.67731C17.3971 8.10176 17.096 7.40445 17.096 6.51456C17.096 5.62472 17.3971 4.92724 18.0041 4.35185L18.0139 4.34263L18.0233 4.33315L20.4295 1.92672C20.4296 1.92663 20.4297 1.92654 20.4298 1.92645C21.0627 1.29416 21.7736 0.999999 22.6107 0.999999C23.4755 0.999999 24.1961 1.2982 24.8243 1.92643L24.8243 1.92648L45.7165 22.8187L45.7264 22.8285L45.7365 22.8381C46.3113 23.3817 46.6111 24.0738 46.6111 25.0001C46.6111 25.9001 46.3142 26.6153 45.7166 27.2129Z" stroke="#121212" stroke-width="2"/>
</svg>
