<svg width="352" height="536" viewBox="0 0 352 536" fill="none" xmlns="http://www.w3.org/2000/svg">
<g clip-path="url(#clip0_346_2)">
<path d="M337.536 52.0616C336.947 51.8476 336.328 51.6766 335.676 51.5536C334.872 51.4006 334.035 51.2806 333.183 51.1756C331.966 51.0246 330.714 50.9146 329.456 50.8206C327.233 50.6566 325.015 50.5346 322.943 50.3526C321.161 50.1956 319.484 49.9916 318.059 49.6486C317.027 49.4006 314.055 47.8096 313.774 47.7446C312.822 47.5236 311.733 48.0196 310.92 47.7446C309.786 47.3616 309.085 46.1336 308.063 45.8396C305.871 45.2086 304.89 45.2886 303.78 44.8876C301.598 44.1036 299.42 44.4676 297.591 43.9356C296.816 43.7116 297.203 43.1146 296.161 42.9836C295.276 42.8716 294.326 42.8366 293.351 42.8426C291.403 42.8536 289.367 43.0266 287.602 43.0646C286.722 43.0836 285.908 43.0686 285.21 42.9836C284.635 43.4216 283.953 43.7536 283.228 44.0456C279.202 45.6696 273.342 45.4616 270.451 48.2206C270.665 48.2426 270.886 48.2496 271.099 48.2696C281.197 49.2076 292.286 48.1576 302.349 46.7916C308.269 49.6016 304.726 61.8736 305.684 69.6456C308.319 70.1836 307.654 74.0236 309.968 74.8826C309.975 74.8456 309.97 74.8096 309.975 74.7716C310.24 73.1176 308.537 71.6016 310.443 71.0736C312.041 72.3336 312.119 75.1126 314.253 75.8346C314.056 75.1596 313.625 73.7686 313.745 72.7486C313.817 72.1376 314.089 71.6596 314.728 71.5496C315.955 71.8316 316.305 72.9896 316.649 74.1516C316.821 74.7336 316.994 75.3166 317.271 75.7916C317.55 76.2676 317.935 76.6356 318.538 76.7876C318.211 75.9656 316.599 74.0136 318.061 72.9786H320.441V75.8346C322.92 76.5316 322.487 80.1376 325.203 80.5956C324.624 78.6356 323.22 77.4986 322.347 75.8346C322.372 75.7216 322.393 75.6036 322.415 75.4856C322.457 75.2496 322.496 75.0116 322.557 74.7936C322.617 74.5766 322.698 74.3806 322.824 74.2286C322.951 74.0776 323.122 73.9716 323.361 73.9336C323.48 73.9146 323.619 73.9126 323.774 73.9306C324.407 74.7266 325.617 74.9466 325.205 76.7876C327.282 77.1186 325.093 73.1846 327.586 73.9306C328.563 74.3806 328.567 75.8036 329.965 75.8346C330.14 75.8316 330.292 75.8056 330.428 75.7626C330.698 75.6766 330.901 75.5226 331.073 75.3366C331.245 75.1516 331.385 74.9346 331.53 74.7226C331.676 74.5106 331.827 74.3046 332.018 74.1406C332.115 74.0586 332.223 73.9866 332.345 73.9306C333.279 75.8526 335.768 76.2216 338.057 76.7876C338.174 76.5856 338.313 76.4076 338.482 76.2596C338.821 75.9626 339.276 75.7826 339.885 75.7556C340.187 75.7426 340.53 75.7676 340.915 75.8346C347.9 68.1796 346.352 55.2716 337.536 52.0616ZM329.013 78.6916C329.094 77.4976 327.944 77.5356 327.584 76.7876C327.426 77.4316 326.91 77.6976 327.107 78.6916H329.013ZM334.723 137.732V137.731C333.863 136.172 333.64 134.937 333.636 133.386C333.632 132.455 333.708 131.411 333.771 130.114H333.77C330.831 124.645 325.307 121.756 321.394 117.259C316.8 115.981 312.137 114.773 305.682 115.354C306.143 117.626 306.192 120.319 306.18 123.07C306.175 123.987 306.164 124.91 306.158 125.827C305.427 126.365 304.988 127.196 304.255 127.731V131.062V131.064C299.462 138.967 294.902 147.104 293.305 158.201C293.304 158.202 293.304 158.202 293.304 158.203C296.748 162.057 294.29 171.817 297.112 176.295C300.452 175.654 300.907 177.896 302.349 179.151C305.001 178.945 305.588 178.681 307.11 180.104C308.849 177.239 313.905 177.693 315.205 174.39C316.309 174.238 317.032 174.468 317.586 174.866C317.586 174.866 317.586 174.865 317.585 174.864C317.51 174.63 317.471 174.433 317.463 174.267C317.405 173.101 318.863 173.449 319.964 173.438C320.496 171.748 321.189 170.22 323.299 170.105C323.251 169.818 323.223 169.552 323.214 169.305C323.096 166.092 326.055 165.956 326.269 163.078C326.303 162.636 326.27 162.128 326.153 161.535C327.548 161.66 327.615 160.46 329.011 160.585C329.149 158.982 329.769 157.475 330.482 155.948C331.197 154.416 331.992 152.857 332.519 151.163C332.629 150.816 332.737 150.47 332.818 150.111C333.765 145.915 332.82 141.122 334.723 137.732ZM87.6231 362.927C87.6221 362.934 87.6221 362.942 87.6201 362.949C87.3661 364.277 87.3691 366.189 87.4371 368.192C87.4821 369.465 87.5471 370.754 87.5991 371.973C87.6611 373.434 87.7001 374.779 87.6241 375.764C87.6231 375.769 87.6231 375.774 87.6231 375.779C87.6241 375.779 87.6241 375.779 87.6251 375.78C92.0571 376.944 97.2821 376.48 102.384 376.256C108.036 376.008 113.644 376.371 119.047 376.256C126.072 376.105 133.244 374.95 140.473 374.827C175.715 374.229 216.962 374.812 250.452 374.827C258.061 374.829 265.412 374.54 272.829 374.827C279.697 375.091 286.859 374.651 293.288 372.926C293.293 372.925 293.298 372.924 293.302 372.923C292.822 372.757 292.532 372.491 292.37 372.163C291.701 370.812 293.266 368.379 293.302 367.213V367.211C293.303 367.212 293.303 367.214 293.304 367.216L293.302 367.211C293.192 367.017 293.096 366.81 293.01 366.593C291.721 363.317 292.997 357.6 292.828 356.263C292.48 353.518 291.849 351.014 293.304 348.645C291.59 342.553 292.351 335.798 292.351 329.125C292.351 315.054 292.495 300.885 292.351 287.227C292.257 278.145 292.993 268.746 291.401 261.993C292.524 259.441 292.207 256.379 292.351 253.896C292.402 253.607 292.405 253.368 292.371 253.164C292.165 251.944 290.641 252.042 290.431 250.826C290.394 250.622 290.395 250.38 290.447 250.088C287.768 241.665 290.626 232.069 291.399 222.95C292.619 208.554 290.42 194.179 290.924 179.147C291.593 179.108 291.466 180.527 291.874 179.626L291.876 179.624C291.348 179.226 290.995 178.761 290.766 178.243C289.776 175.996 291.138 172.745 290.924 169.625C290.59 164.821 287.818 159.698 288.066 155.342C288.324 150.858 291.78 146.24 292.351 141.535C293.084 135.502 291.878 128.862 291.878 122.014C291.878 102.256 290.16 82.3616 290.447 62.9816V62.9766C238.496 63.3946 188.25 64.4046 135.711 64.4046C127.171 64.4046 118.33 65.6206 110 65.3566C103.282 65.1446 96.6041 64.5406 91.4321 64.8806C89.7241 64.9916 86.8911 64.2656 85.7201 66.3086C83.8281 70.2306 85.2241 74.9126 85.2441 79.1636C85.4261 122.721 86.3601 170.94 86.1961 221.045C86.1231 242.796 86.6721 267.25 86.6721 291.034C86.6721 307.934 86.5031 327.627 87.1471 344.834C87.3881 351.234 88.6081 357.892 87.6231 362.927ZM297.112 225.811C297.156 229.326 294.888 230.529 295.001 234.114C295.016 234.626 295.081 235.187 295.208 235.809C296.981 236.733 297.081 239.33 299.016 240.094C299.307 240.44 299.377 240.613 299.353 240.758C299.312 241.009 298.99 241.175 299.016 241.998C301.067 241.849 302.596 242.624 302.175 244.154C302.114 244.373 302.015 244.606 301.872 244.854C301.872 244.854 301.872 244.855 301.873 244.855C303.861 245.883 305.726 247.031 308.537 247.235C308.536 247.714 308.923 247.803 309.014 248.187V248.189C309.139 249.149 307.992 248.834 307.668 249.343C307.655 249.361 307.656 249.391 307.646 249.411C307.619 249.472 307.59 249.532 307.585 249.616H307.586C312.216 250.124 314.472 246.672 317.107 243.902C317.788 244.016 317.908 244.687 318.536 244.853C318.748 243.637 319.204 242.665 319.964 241.996C324.501 241.613 324.937 237.13 329.013 236.283C328.978 233.395 330.679 232.236 332.345 231.046C332.756 225.587 335.856 222.818 337.581 218.669L337.582 218.667C336.853 217.961 336.609 217.207 336.562 216.431C336.5 215.396 336.786 214.321 336.739 213.267C336.726 213.002 336.694 212.738 336.63 212.478V212.479C336.41 211.593 334.272 207.052 333.772 206.29C333.418 205.748 332.514 206.3 332.345 205.338C332.078 203.812 331.725 204.187 330.917 203.434C327.255 200.031 319.64 197.168 313.774 200.101C310.481 199.662 309.225 201.263 307.11 202.005C306.862 202.452 306.776 202.887 306.769 203.315C306.757 204.172 307.059 205.008 307.023 205.886C307.007 206.324 306.903 206.774 306.635 207.242H306.636C308.186 207.119 308.927 207.808 309.015 209.146C303.19 212.847 302.205 221.381 297.112 225.811ZM297.589 189.149C298.818 195.696 297.252 205.04 298.541 211.527C298.695 211.221 298.803 210.87 298.939 210.547C299.39 209.479 299.757 208.337 300.025 207.122C300.101 206.78 300.183 206.445 300.247 206.096C300.891 202.495 300.87 198.496 300.438 194.857C300.216 192.979 299.888 191.2 299.494 189.626C298.593 189.733 298.441 189.088 297.589 189.149ZM302.64 361.822C302.699 354.749 302.661 347.645 302.349 340.553C301.73 326.5 302.363 312.6 301.874 299.132C301.801 297.061 300.924 294.591 300.924 292.466V292.463C300.925 289.796 301.463 287.073 301.399 283.896C301.268 277.484 302.092 271.882 301.874 266.28V266.276C301.78 263.834 301.88 259.701 298.541 259.139C298.068 259.575 297.863 260.002 297.82 260.426C297.694 261.699 299.032 262.949 299.016 264.37V264.375C299.016 264.352 298.095 264.792 298.064 264.852C297.123 266.736 297.364 269.309 297.84 271.79C298.314 274.27 299.022 276.659 299.016 278.179V278.183C299.014 279.192 298.123 280.639 298.064 281.518C298.04 281.913 298.037 282.303 298.051 282.688C298.103 284.171 298.406 285.595 298.66 287.012C298.854 288.101 299.012 289.187 299.011 290.293C299.011 290.382 299.019 290.47 299.016 290.559V290.562C298.973 292.323 298.231 293.889 298.064 295.803C297.959 297.029 297.934 298.377 297.959 299.777C298.031 303.988 298.538 308.677 298.541 311.988C298.541 312.616 299.092 313.736 299.016 314.364V314.369C298.887 315.425 297.971 315.579 298.065 316.746C298.065 316.747 298.064 316.748 298.064 316.75C298.09 317.035 298.152 317.336 298.223 317.64C298.233 317.687 298.235 317.732 298.247 317.781C298.421 318.495 298.673 319.242 298.844 319.969C298.851 320.007 298.852 320.044 298.861 320.082C298.933 320.405 298.996 320.726 299.016 321.034C299.352 325.689 299.483 330.401 299.493 335.169C299.52 349.476 298.453 364.287 298.541 379.597C273.057 380.92 244.785 381.977 216.174 381.977C203.393 381.977 190.271 381.358 178.085 382.453C176.425 382.602 174.497 383.401 172.848 383.403C171.042 383.409 168.932 382.58 167.135 382.453C155.149 381.596 141.521 383.826 131.903 381.501C129.949 382.234 128.441 382.697 126.188 382.931C115.485 384.04 101.434 383.496 92.3851 383.405C88.6411 383.367 85.0471 383.415 81.9111 382.455C81.3661 381.462 81.2381 380.494 81.2491 379.543C81.2631 378.594 81.4151 377.662 81.4341 376.741C81.4731 374.917 81.3091 372.873 81.9111 371.028C81.9111 371.027 81.9111 371.026 81.9101 371.025C81.1191 369.309 80.8681 367.191 80.8321 364.895C80.7861 361.833 81.1211 358.452 81.0771 355.271C81.0641 354.479 81.0301 353.697 80.9581 352.937C80.7891 351.123 80.0061 349.278 80.0061 347.697C80.0061 347.695 80.0071 347.694 80.0071 347.693C80.0081 345.861 80.8131 343.773 80.9581 341.983C81.0571 340.759 81.1071 339.491 81.1241 338.196C81.1291 337.895 81.1191 337.583 81.1201 337.28C81.1231 336.279 81.1241 335.275 81.1071 334.254C81.0641 332.015 80.9981 329.753 80.9751 327.527C80.9721 327.11 80.9581 326.686 80.9581 326.27C80.9581 322.502 81.1561 318.736 81.1071 315.1C81.0901 313.889 81.0461 312.692 80.9581 311.515C80.7001 308.04 79.9321 304.186 79.8361 300.44C79.8041 299.193 79.8471 297.959 80.0061 296.755C80.1161 295.932 80.9601 294.755 80.9581 293.9C80.9581 293.899 80.9571 293.896 80.9571 293.896C80.9531 293.152 80.0801 291.822 80.0061 291.044C79.9371 290.338 79.9431 289.62 79.9631 288.901C79.9831 288.184 80.0161 287.466 80.0061 286.759V286.755C79.7081 267.331 79.4761 248.016 79.5301 229.625C79.5571 219.7 80.5031 209.186 80.0781 199.854C80.0531 199.305 80.0401 198.743 80.0061 198.202C79.9251 196.97 79.2031 195.508 79.0541 194.393C78.9721 193.781 78.9321 193.133 78.9191 192.463C78.8791 190.46 79.0711 188.266 79.0541 186.299V186.294C79.0201 182.457 79.0041 178.627 78.9971 174.813C78.9781 163.372 79.0541 152.067 79.0541 141.068C79.0541 138.175 79.2381 135.192 79.2111 132.222C79.1831 129.254 78.9461 126.298 78.1011 123.453C78.1011 123.452 78.1011 123.451 78.1021 123.451C78.8281 122.606 79.0861 121.645 79.1201 120.626C79.1811 118.933 78.6241 117.084 78.5781 115.358V115.354C78.5201 113.228 78.9391 110.878 79.0601 108.579C79.1001 107.814 79.1081 107.056 79.0541 106.312C78.9311 104.622 78.1861 102.845 78.1011 101.075V101.069C77.9831 98.5956 79.0481 98.5266 79.0541 97.2656C79.0521 97.2076 78.1661 96.1346 78.1011 95.8376C78.0471 95.5896 78.0201 95.3336 78.0111 95.0776C77.9791 94.3156 78.0991 93.5506 78.1011 92.9806C78.1051 90.2866 78.8041 87.5986 78.8891 85.0386C78.9391 83.5046 78.7701 82.0176 78.1011 80.6026C78.1011 80.6016 78.1021 80.6006 78.1021 80.5996C78.7871 79.0366 79.0271 77.3276 79.0401 75.5366C79.0761 71.1306 77.7551 66.2296 78.3071 61.7836C78.4391 60.7276 78.6641 59.6926 79.0541 58.7006C85.5141 57.6136 92.5461 58.2346 99.5271 58.2246C106.111 58.2146 112.674 57.9806 119.524 57.7486C157.455 56.4556 196.224 59.1446 227.6 56.7966C231.497 58.7626 235.125 56.9846 239.504 56.7966C257.288 56.0326 277.805 56.7806 296.161 57.2726C296.125 58.0856 296.115 58.8996 296.127 59.7136C296.194 64.6066 296.992 69.4916 297.114 74.0606C297.135 74.8216 297.137 75.5746 297.112 76.3166C297.07 77.6736 296.218 78.9426 296.161 80.1236V80.1256C296.125 80.8916 296.553 81.6476 296.637 82.5046V82.5066C296.699 83.1476 296.376 83.4896 296.227 83.9276V83.9316C296.18 84.0756 296.15 84.2296 296.161 84.4076V84.4106C296.187 84.8566 296.257 85.2866 296.335 85.7126C296.344 85.7606 296.345 85.8106 296.353 85.8566C296.629 87.2776 297.081 88.6286 297.112 90.1216V90.1246C297.142 91.4516 296.244 93.0736 296.161 94.4086V94.4096C296.13 94.9106 296.172 95.4416 296.207 95.9696C296.221 96.1676 296.204 96.3546 296.223 96.5566C296.372 98.0366 296.683 99.5906 296.898 101.141C296.935 101.414 296.943 101.683 296.973 101.956C297.029 102.456 297.097 102.958 297.112 103.451V103.456C297.133 104.042 296.18 104.504 296.161 104.882V104.884C296.114 105.894 297.073 105.747 297.112 106.312C297.278 108.669 297.437 111.74 297.408 114.445C297.39 116.071 297.306 117.564 297.112 118.691C296.905 119.899 296.807 120.19 296.808 120.448C296.81 120.707 296.914 120.933 297.112 122.024C297.175 122.366 297.21 122.703 297.224 123.034C297.301 124.694 296.89 126.224 297.053 127.595C297.117 128.145 297.272 128.669 297.589 129.166C299.004 128.202 298.254 125.071 299.968 124.405V124.398C299.679 100.238 300.453 75.3846 299.016 53.9396C287.233 54.0156 275.133 52.7816 262.833 53.4636V53.4576C260.806 53.5706 258.698 54.3446 256.642 54.4076C251.204 54.5806 242.316 52.7836 236.646 53.9316C231.636 54.9476 225.489 54.2656 219.507 54.4076C213.421 54.5546 206.988 54.3706 200.938 54.4076C188.854 54.4816 176.464 55.0026 165.229 54.8836C134.952 54.5646 104.849 55.7806 76.1981 55.3606C77.0471 60.9996 77.3491 67.1806 77.3321 73.2636C77.3131 81.0856 76.7701 88.7456 76.1981 94.8776C75.9861 97.1356 75.9801 99.5896 76.0381 102.172C76.0971 104.755 76.2181 107.465 76.2611 110.232C76.2711 110.981 76.2711 111.736 76.2681 112.493C76.2671 112.667 76.2721 112.84 76.2701 113.016C76.2631 113.95 76.2401 114.888 76.1981 115.827C76.1561 116.779 75.2651 117.158 75.2451 117.254L75.2441 117.255C75.1601 117.786 76.2281 118.384 76.1971 118.682C76.1971 118.682 76.1981 118.683 76.1981 118.684C76.0031 120.388 75.3211 121.409 75.2441 122.968C75.2141 123.628 75.1941 124.29 75.1841 124.951C75.1841 124.979 75.1851 125.007 75.1841 125.035C75.1781 125.667 75.1781 126.3 75.1861 126.928C75.2431 130.868 75.5851 134.674 75.7211 137.724C75.7211 137.725 75.7221 137.727 75.7221 137.728C75.7721 138.88 75.4221 139.758 75.2861 140.64C75.2631 140.794 75.2711 140.953 75.2651 141.109C75.2581 141.25 75.2341 141.388 75.2441 141.533V141.537C75.3691 143.024 76.0831 144.37 76.1981 145.822C76.4601 149.206 76.5071 152.581 76.4511 155.921C76.3401 162.609 75.8161 169.159 75.7781 175.363C75.7591 178.466 75.8611 181.482 76.1981 184.387C76.2461 184.813 76.3231 185.209 76.4081 185.591C76.4111 185.603 76.4111 185.617 76.4131 185.629C76.4881 185.956 76.5711 186.269 76.6521 186.581C76.7111 186.807 76.7621 187.039 76.8181 187.265C76.8711 187.482 76.9301 187.698 76.9741 187.923C76.9981 188.04 77.0081 188.172 77.0281 188.293C77.0761 188.571 77.1271 188.847 77.1501 189.147C77.2611 190.641 77.2651 192.086 77.2151 193.486C77.2081 193.659 77.1951 193.825 77.1861 193.997C77.0061 197.993 76.4281 201.615 76.6741 204.859C76.6921 205.104 76.6961 205.298 76.6891 205.457C76.6531 206.417 76.2301 206.031 76.1841 206.764C76.1781 206.887 76.1801 207.041 76.1981 207.24C76.3801 209.358 77.1581 211.429 77.2021 213.499C77.2271 214.741 76.9901 215.983 76.1991 217.235C76.1981 217.236 76.1981 217.237 76.1981 217.238C77.0301 218.372 77.2671 220.02 77.2981 221.868C77.3281 223.718 77.1501 225.769 77.1501 227.711V227.713C77.1501 230.158 77.3311 232.726 77.1211 234.878C76.9951 236.167 76.7291 237.308 76.1991 238.184C76.1991 238.185 76.1981 238.187 76.1981 238.187C76.9721 238.815 77.2681 239.591 77.3091 240.395C77.3991 242.161 76.2471 244.065 76.1981 244.85V244.853C76.1471 245.682 77.1531 246.072 77.1491 246.757H77.1501C77.1321 249.687 76.6311 253.467 76.6741 253.894C76.6741 253.895 76.6731 253.898 76.6741 253.899C76.7911 254.971 77.1141 255.587 77.1501 256.756C77.1791 257.713 77.1851 258.674 77.1801 259.637C77.1611 262.53 77.0211 265.445 76.9991 268.332C76.9711 272.18 77.1511 275.977 78.1001 279.607C78.1001 279.608 78.1001 279.609 78.1011 279.611C77.3431 281.053 77.1791 282.535 77.2611 284.032C77.3971 286.529 78.2201 289.063 78.1011 291.509C78.1001 291.511 78.1011 291.512 78.1011 291.514C78.0191 293.146 77.2291 294.602 77.1501 296.27V296.271C77.0631 298.065 78.0271 299.255 78.1001 301.03C78.1001 301.032 78.1011 301.033 78.1011 301.034C78.1401 301.988 77.3071 302.006 77.1501 302.937C77.1271 303.075 77.1231 303.2 77.1361 303.318C77.2211 304.153 78.0781 304.55 78.1011 305.319C78.1161 305.757 78.1141 306.202 78.1031 306.653C78.0741 308.011 77.9681 309.415 77.9741 310.814C77.9841 312.68 78.1941 314.537 79.0531 316.268L79.0541 316.27C78.2971 319.712 77.8821 325.885 77.9361 332.02C77.9821 336.955 78.3281 341.865 79.0541 345.311V345.314C78.5331 346.946 78.2491 348.679 78.0921 350.449C77.5731 356.225 78.5571 362.441 78.5671 367.439C78.5681 367.678 78.5811 367.935 78.5781 368.168C78.5121 371.618 77.9391 375.354 78.1191 379.212C78.2271 381.529 78.6071 383.891 79.5301 386.26C111.575 386.054 143.837 385.107 170.944 384.831C188.813 384.649 206.047 384.5 222.84 384.354C250.432 384.117 276.543 384.407 302.349 382.927C302.426 375.947 302.581 368.899 302.64 361.822ZM92.8861 393.128C92.7631 393.274 92.6351 393.417 92.4991 393.552C92.3071 393.745 92.1091 393.934 91.9191 394.131C91.6661 394.394 91.4321 394.675 91.2591 395.016C91.1721 395.187 91.0991 395.372 91.0481 395.577C90.9951 395.782 90.9641 396.008 90.9561 396.258C91.0141 396.198 91.0801 396.135 91.1571 396.067C91.2631 395.976 91.3891 395.875 91.5201 395.77C92.8191 394.766 95.1511 393.32 93.3371 392.449C93.2171 392.706 93.0571 392.923 92.8861 393.128ZM109.049 397.21C109.18 395.901 108.099 394.057 107.143 393.401C107.138 393.396 107.116 393.389 107.105 393.383C106.792 393.205 104.992 392.63 104.44 392.484C104.359 392.463 104.306 392.451 104.287 392.451C101.724 392.443 101.409 395.014 99.0901 395.296C99.0761 395.298 99.0651 395.305 99.0511 395.306C99.3071 396.395 98.9061 396.827 98.6931 397.448C98.6211 397.654 98.5721 397.883 98.5751 398.162C97.3521 398.994 96.3091 400.004 95.3891 401.136C94.7751 401.891 94.2151 402.699 93.6931 403.546C93.1711 404.393 92.6851 405.276 92.2221 406.182C91.7581 407.086 91.3161 408.012 90.8771 408.942C90.4941 409.757 90.1131 410.574 89.7241 411.384C88.5591 413.812 87.3261 416.172 85.7201 418.159C85.8841 420.217 86.9891 421.333 88.0991 422.444C88.2001 422.326 88.2771 422.186 88.3721 422.062C92.0301 417.427 93.0581 410.162 97.3061 406.118C97.4171 406.012 97.5061 405.882 97.6211 405.78C97.5361 405.417 97.5241 405.127 97.5541 404.879C97.6401 404.134 98.1051 403.767 98.0991 402.926C101.025 402.178 101.233 398.473 103.811 397.21C105.1 396.582 106.76 397.525 108.097 396.26C108.15 396.842 108.24 397.387 109.049 397.21ZM89.5311 397.748C89.4741 398.049 89.3151 398.247 89.1211 398.411C88.9291 398.574 88.7011 398.703 88.5071 398.867C88.3121 399.03 88.1541 399.229 88.0981 399.529C88.0701 399.68 88.0681 399.855 88.0991 400.067C89.0111 400.219 90.4891 399.035 90.5361 398.127C90.5501 397.879 90.4551 397.651 90.2161 397.478C90.0571 397.361 89.8301 397.27 89.5291 397.21C89.5601 397.421 89.5571 397.598 89.5311 397.748ZM83.8151 408.637C84.3411 407.482 85.5601 406.455 85.7211 405.001C85.7441 404.794 85.7441 404.578 85.7201 404.353C86.5061 403.75 87.5331 403.387 87.6391 402.104C87.6541 401.92 87.6501 401.719 87.6231 401.495C87.5181 401.124 87.2241 400.944 86.6721 401.02C84.9351 403.422 84.6501 407.25 81.9111 408.639V412.444V412.446C83.4111 411.858 83.2421 409.895 83.8151 408.637ZM73.3411 75.8346C72.0971 75.9696 71.2921 75.6606 71.4351 74.4066C72.5341 72.2946 72.1561 70.8526 72.0151 69.2066C71.9871 68.8776 71.9681 68.5406 71.9731 68.1876C71.9821 67.4826 72.0831 66.7176 72.3891 65.8366C71.8541 65.3146 71.5611 64.7776 71.3491 64.2286C71.0271 63.3916 70.9061 62.5246 70.5151 61.6296C70.3011 61.1356 70.0001 60.6336 69.5321 60.1236C69.5371 59.1766 70.8301 59.5186 70.4841 58.2186C68.7051 58.4096 67.6911 57.8376 67.6271 56.3146C67.0021 53.6266 69.5151 54.0766 69.5321 52.0296C67.3071 51.5536 66.2651 49.8986 66.6751 46.7916C65.9831 46.5326 64.2151 47.3496 64.2951 46.3156C64.6911 45.1236 65.5991 44.4456 65.7231 42.9836C65.3021 43.0476 64.9371 43.0536 64.6221 43.0116C63.9931 42.9286 63.5571 42.6496 63.2451 42.2456C63.0911 42.0436 62.9681 41.8106 62.8671 41.5546C62.7401 41.0296 62.7361 40.5366 62.7861 40.0756C62.8691 39.3056 63.0941 38.6316 63.1621 38.0406C63.2181 37.5716 63.1791 37.1526 62.8671 36.7936C62.8171 36.5256 62.6291 36.3966 62.3781 36.3296C62.1281 36.2626 61.8141 36.2586 61.5151 36.2406C60.9151 36.2046 60.3701 36.1156 60.4861 35.3656V32.5086C58.7101 31.5866 57.1241 30.4736 57.6291 27.2716C56.1161 24.5016 53.6711 22.6596 52.8681 19.1776C51.9711 18.4876 50.3931 18.4776 50.0111 17.2726V14.8926C46.6331 12.8756 44.9711 9.14163 39.5361 9.17963C40.2771 7.16963 36.8911 9.28466 37.6331 7.27466C33.9111 6.72766 32.9031 8.8916 29.0611 8.2276C24.2901 15.4676 29.9381 25.9726 30.9671 33.4606C31.3031 33.6016 31.5781 33.8006 31.8091 34.0466C33.1181 35.4406 32.9741 38.2876 33.9211 40.0436C34.1411 40.4526 34.4011 40.8236 34.7761 41.0786C36.6311 39.6006 36.7641 36.4006 37.1561 33.4606C34.5541 32.1816 35.9321 29.8766 35.7271 26.3196C34.7821 25.9946 34.6391 24.8696 33.8241 24.4156C33.0681 19.4576 30.4631 16.3486 28.1101 12.9886C29.0811 12.3736 28.9761 10.6816 30.9671 11.0836C33.9661 15.0676 38.3471 17.6696 38.5851 24.4156C39.5991 25.7806 40.3091 27.4506 40.4921 29.6496C40.5531 30.3826 40.5551 31.1736 40.4891 32.0326C40.8221 32.3006 41.0571 32.5756 41.2201 32.8596C41.4611 33.2846 41.5331 33.7286 41.5031 34.1926C41.4131 35.5826 40.4141 37.1496 40.3631 38.9176C40.3501 39.3106 40.3871 39.7136 40.4891 40.1266C38.1321 41.7376 38.2441 45.8156 34.7761 46.3156C34.2121 48.1976 33.9731 49.8806 33.9341 51.4736C33.8221 56.2496 35.5201 60.2176 35.7271 66.3126C36.8771 66.7526 37.5101 67.7076 38.1091 68.6936C37.7851 69.8006 36.5281 69.9686 36.2031 71.0736C36.9641 71.7406 37.4201 72.7146 37.6331 73.9306C34.7561 74.8626 32.4911 76.4066 31.9191 79.6436C33.3481 83.1356 36.9321 84.4706 37.6331 88.6896C37.3921 88.6886 37.2501 88.7856 37.1201 88.8936C36.9911 89.0006 36.8711 89.1206 36.6801 89.1656C34.7821 89.6366 35.2451 87.7416 33.3481 88.2136C33.9881 89.7016 34.2741 92.6856 32.3941 92.9756C31.7261 92.2126 30.7551 91.7586 29.5371 91.5466C30.6281 96.0256 32.4111 98.1526 30.9671 102.021H28.5861C28.1431 104.368 31.4581 102.958 30.9671 105.354C29.6601 106.11 28.7681 107.283 27.1581 107.735C27.1191 107.971 27.1191 108.169 27.1471 108.339C27.2041 108.68 27.3731 108.908 27.5781 109.101C28.0901 109.581 28.8261 109.838 28.5861 111.067C27.7661 111.518 27.8071 112.827 26.2051 112.496C26.5951 114.012 28.0901 114.42 28.1101 116.305C25.7241 116.515 25.4281 118.37 26.2051 120.59C25.8191 120.64 25.5321 120.789 25.2971 120.99C25.0601 121.191 24.8791 121.445 24.7031 121.705C24.5261 121.965 24.3551 122.231 24.1441 122.458C23.9341 122.684 23.6841 122.87 23.3491 122.97C24.3671 128.009 20.0081 129.422 20.7481 133.144C20.7991 133.392 20.8691 133.65 20.9691 133.921C19.7411 137.04 17.6251 140.319 17.1601 142.967C16.7111 145.516 17.8681 148.696 17.1601 151.061C17.1431 151.111 17.1191 151.148 17.0891 151.176C16.8701 151.374 16.3171 151.144 16.2061 152.013C15.6631 156.286 15.7581 160.48 15.6991 164.501C15.6751 166.11 15.6271 167.691 15.5031 169.239C15.4411 170.012 15.3611 170.778 15.2551 171.534C15.2661 171.615 15.3181 171.656 15.3431 171.724C15.6131 172.474 16.5551 172.549 16.6821 173.438C16.2721 173.546 15.9801 173.689 15.7811 173.857C14.3791 175.035 17.4341 177.474 15.2551 178.199C15.2031 178.499 15.2171 178.733 15.2771 178.922C15.4531 179.488 16.0411 179.644 16.5151 179.916C16.8921 180.132 17.1981 180.423 17.1601 181.056C17.1981 181.689 16.8921 181.979 16.5151 182.196C16.0411 182.467 15.4531 182.624 15.2771 183.19C15.2171 183.379 15.2031 183.613 15.2551 183.913C15.6651 183.978 16.0071 184.113 16.2841 184.312C16.5581 184.513 16.7701 184.777 16.9221 185.102C17.2241 185.751 17.2901 186.638 17.1601 187.721C16.5541 187.949 15.1241 187.353 14.8291 187.892C14.7871 187.969 14.7681 188.068 14.7791 188.197C16.3791 188.571 16.7081 189.664 16.3911 190.736C16.2021 191.379 15.7781 192.014 15.2551 192.482C16.3171 193.484 17.9691 193.895 18.1121 195.815C17.8571 196.394 16.6441 196.015 16.2981 196.501C16.2471 196.57 16.2171 196.657 16.2061 196.768C19.1201 198.087 17.8511 200.735 19.0631 203.434C18.3751 205.286 16.4961 205.944 15.2551 207.242C15.3081 207.256 15.3621 207.27 15.4141 207.283C17.0071 207.687 18.5091 208.182 18.5881 210.099C18.0151 210.637 17.7241 211.458 16.2061 211.051C16.3671 212.14 17.4161 212.341 17.2901 213.717C17.2721 213.913 17.2321 214.134 17.1601 214.384C16.7381 214.438 16.1411 214.318 15.7111 214.363C15.6031 214.375 15.5061 214.396 15.4251 214.434C15.1801 214.546 15.0761 214.799 15.2551 215.336C15.3301 215.475 15.4541 215.566 15.5961 215.64C16.3931 216.056 18.0141 215.648 18.1121 216.765C18.0821 216.954 18.0291 217.118 17.9551 217.264C17.4471 218.281 16.0071 218.371 15.7301 219.621C17.8291 219.762 20.1811 221.593 18.5881 223.906C19.8221 224.576 21.8081 224.493 21.4451 226.763C21.0501 227.161 20.3501 227.256 19.5641 227.264C18.9741 227.269 18.3361 227.225 17.7391 227.223C17.5391 227.223 17.3461 227.227 17.1601 227.238C17.6281 229.786 21.9491 228.482 22.8721 230.571C22.1191 231.722 20.3261 231.833 19.0631 232.476C20.3891 233.056 21.8921 233.456 22.8721 234.38V236.285C20.8241 237.411 18.6881 234.858 16.6821 236.285C19.7891 237.78 24.6761 237.499 25.7291 241.046C24.5491 241.461 22.0371 241.977 20.9691 241.046C21.0791 241.43 21.2591 241.748 21.4891 242.015C23.0951 243.881 27.2031 243.243 28.5861 245.331C27.4611 248.251 23.7971 245.874 21.4451 245.807C22.2151 249.062 26.9991 248.306 28.9131 250.419C29.1871 250.721 29.4021 251.081 29.5371 251.52H25.2541C25.3711 251.818 25.5451 252.062 25.7581 252.266C26.8751 253.334 29.1151 253.283 30.6641 253.92C31.1821 254.132 31.6211 254.421 31.9191 254.854C30.7131 258.446 26.9851 253.889 24.7781 255.806C26.8581 257.214 30.8401 256.726 31.4431 259.614C29.2481 260.197 27.2201 258.156 25.7291 259.614C29.7631 261.064 35.4111 264.038 40.0131 261.995C40.7831 263.128 43.3041 262.513 43.3461 264.373C39.6471 267.789 35.1441 263.746 30.0151 264.85C30.3351 265.665 31.0151 266.062 31.8671 266.268C32.1511 266.337 32.4531 266.384 32.7681 266.419C33.4001 266.487 34.0781 266.505 34.7471 266.539C35.4191 266.572 36.0801 266.621 36.6801 266.754C38.3191 267.119 39.9131 267.929 41.4411 268.185C42.9271 268.433 46.9771 266.363 46.2031 270.089C45.7581 270.196 45.3111 270.28 44.8661 270.344C43.9741 270.471 43.0771 270.517 42.1791 270.501C36.7871 270.41 31.3241 268.129 26.0821 268.133C25.6451 268.134 25.2111 268.149 24.7781 268.185C25.7751 268.456 26.7671 268.732 27.7651 269.006C31.4991 270.031 35.2741 271.019 39.4491 271.604C40.8401 271.802 42.2761 271.952 43.7681 272.046C46.1601 272.194 48.6981 272.195 51.4391 271.993C51.8491 275.482 55.3691 274.78 57.6291 273.422C57.1311 273.266 56.5551 273.186 56.0241 273.062C55.1391 272.855 54.3751 272.527 54.2961 271.517C57.2161 268.189 63.7301 268.452 66.2301 264.704C66.3971 264.455 66.5471 264.187 66.6751 263.899C64.0091 263.909 61.5621 266.859 60.4861 263.423C61.4321 262.723 62.5291 262.173 63.6271 261.625C65.8101 260.536 68.0051 259.456 69.0561 257.233C68.7381 257.154 68.4661 257.119 68.2251 257.118C66.7881 257.109 66.5591 258.31 65.1231 258.302C64.8851 258.301 64.6121 258.266 64.2951 258.186C64.3161 257.529 64.0711 257.141 63.8191 256.758C64.0291 256.254 64.3521 255.863 64.7241 255.521C65.6571 254.668 66.8901 254.116 67.4101 252.851C67.5141 252.597 67.5891 252.315 67.6271 251.996C67.7611 250.893 65.6191 252.062 65.5931 251.116C65.5891 250.98 65.6281 250.803 65.7231 250.568C66.2241 249.801 66.6961 249.001 67.2821 248.317C67.8691 247.634 68.5701 247.065 69.5321 246.76C69.4951 246.021 69.1161 245.628 68.6671 245.302C68.3691 245.085 68.0401 244.897 67.7651 244.657C67.3501 244.298 67.0541 243.821 67.1511 242.95C67.3601 240.78 70.6401 241.679 70.4841 239.142C70.4231 239.004 70.3281 238.901 70.2071 238.823C69.8481 238.587 69.2681 238.57 68.7471 238.496C68.0541 238.397 67.4621 238.196 67.6271 237.237C67.7601 237.112 67.9021 236.996 68.0491 236.885C68.3431 236.663 68.6581 236.462 68.9601 236.249C69.2631 236.035 69.5531 235.81 69.7971 235.538C70.0411 235.268 70.2421 234.951 70.3641 234.558C70.4251 234.36 70.4661 234.145 70.4841 233.904C69.2231 233.896 67.6811 234.168 67.6271 232.952C68.2801 231.7 69.2321 230.748 70.4841 230.096C69.9971 226.653 69.5171 223.081 70.4841 219.145C70.3111 218.857 70.1661 218.568 70.0461 218.277C68.2241 213.914 71.7031 209.198 69.5321 204.861C71.8231 196.464 69.0781 186.442 70.4841 179.151C66.3861 180.999 63.8331 190.682 58.5801 186.769C55.3601 192.753 49.2321 195.827 44.7741 200.576C39.7631 199.021 35.9501 206.532 33.8241 200.576C39.6961 196.981 43.7171 191.395 48.5821 186.769C50.7921 184.669 53.3611 182.925 55.0561 180.323C55.2981 179.951 55.5211 179.562 55.7241 179.151H59.0571C62.3301 175.283 64.0991 169.909 66.6751 165.344C65.1741 165.11 64.9931 166.201 63.3431 165.82C62.2141 162.636 64.5071 162.513 65.2461 160.107C64.4741 158.977 62.1941 159.349 62.8661 156.774C62.4541 156.868 62.1191 156.887 61.8411 156.848C61.0471 156.735 60.7371 156.138 60.5221 155.445C60.5131 155.41 60.4951 155.381 60.4861 155.346C60.3791 154.802 60.3741 154.362 60.4321 153.982C60.6021 152.843 61.3191 152.251 61.4371 151.061C59.9621 150.95 59.9521 149.373 59.5341 148.204C60.1671 147.091 62.1111 147.29 61.9131 145.348C61.5991 145.346 61.2651 145.361 60.9431 145.366C60.6191 145.372 60.3071 145.367 60.0331 145.325C59.8941 145.303 59.7661 145.272 59.6521 145.229C59.4881 145.166 59.3631 145.064 59.2611 144.939C59.1491 144.802 59.0681 144.634 59.0571 144.395C60.5141 142.023 58.4111 141.122 57.6291 139.634C58.3491 137.656 60.0161 136.625 61.4371 135.349C60.4501 135.067 59.8141 134.433 59.5341 133.445C60.1291 132.453 60.7001 131.437 61.4371 130.588C60.6231 130.154 60.3641 129.638 60.3471 129.041C60.3411 128.802 60.3721 128.55 60.4251 128.285C60.4511 128.152 60.4801 128.017 60.5141 127.878C60.5791 127.6 60.6551 127.309 60.7201 127.005C60.9131 126.094 61.0151 125.066 60.4861 123.922C62.2901 123.665 62.6301 121.941 63.8191 121.066C63.1121 120.661 62.7951 119.868 62.8661 118.686C63.5781 117.811 64.8511 117.497 65.2461 116.305C64.6651 116.251 64.1191 116.162 64.2951 115.353C65.5331 114.525 65.9851 112.915 67.6271 112.496C67.7491 111.101 66.5521 111.034 66.6751 109.639C66.9251 109.562 67.1501 109.459 67.3521 109.335C67.5571 109.211 67.7391 109.066 67.9031 108.902C70.0291 106.773 69.0211 101.51 71.3201 99.5546C71.3841 99.5006 71.4641 99.4636 71.5321 99.4146C71.6551 99.3276 71.7711 99.2336 71.9111 99.1646C71.7861 98.7336 71.7161 98.3016 71.6591 97.8686C71.1651 94.1616 72.9661 90.3866 73.3411 86.7856C72.8021 86.0806 72.5691 85.3956 72.5241 84.7046C72.4941 84.2446 72.5491 83.7806 72.6531 83.3066C72.8081 82.5946 73.0781 81.8596 73.3411 81.0726C70.9171 79.7686 72.7951 77.8976 73.3411 75.8346ZM61.9131 271.517C59.7251 271.239 58.2691 271.676 57.6291 272.945C57.9071 272.985 58.1621 273.003 58.4001 273.002C60.0631 272.998 60.8281 272.097 61.9131 271.517ZM47.1551 282.468C46.9911 283.686 54.1781 282.13 54.2861 281.993C54.2871 281.993 54.2911 281.992 54.2911 281.991H54.2961V281.989C54.2961 281.99 54.2911 281.991 54.2911 281.991H48.5821C48.5041 282.545 47.8301 282.507 47.1551 282.466V282.468ZM45.2491 282.466C43.4651 282.347 39.4871 279.867 38.5851 281.989V281.991C40.4251 282.055 44.0501 284.872 45.2471 282.469C45.2471 282.468 45.2481 282.467 45.2491 282.466ZM39.2541 286.833C39.4141 286.682 39.5151 286.497 39.5361 286.276C39.1831 286.354 38.8031 286.374 38.4141 286.375C38.3771 286.375 38.3441 286.386 38.3071 286.385C37.8791 286.38 37.4421 286.342 37.0151 286.292C36.3031 286.21 35.6181 286.098 35.0551 286.06C34.4921 286.021 34.0511 286.06 33.8241 286.276C33.8571 286.428 33.9691 286.568 34.1391 286.696C34.5631 287.016 35.3541 287.25 36.2031 287.35C36.7031 287.408 37.2231 287.419 37.6991 287.373C37.8691 287.355 38.0351 287.334 38.1911 287.303C38.6371 287.213 39.0131 287.061 39.2541 286.833ZM251.878 30.6046C250.683 27.5386 255.188 25.9046 255.686 22.5106C256.022 20.2176 255.186 19.0546 254.734 16.3206C253.628 15.1496 252.209 14.2236 250.604 13.5106C247.455 12.1116 243.538 11.5886 239.499 12.0366C239.499 13.1566 238.685 13.4366 239.022 14.8926H239.027C236.096 15.8976 232.012 17.4937 228.42 17.5117C226.265 17.5217 224.286 16.9647 222.84 15.3687V12.9886C221.196 13.0996 219.461 13.1516 217.659 13.1666C214.927 13.1906 212.045 13.1306 209.111 13.0656C206.24 13.0006 203.32 12.9316 200.445 12.9306C192.693 12.9266 185.265 13.4186 179.989 15.8446H176.184H176.181C168.004 19.0946 158.279 20.7966 150.947 24.8916C137.715 29.1166 124.246 33.1056 114.763 41.0786C114.454 43.9456 112.549 45.2126 110 45.8396C110.457 48.0416 108.727 48.0596 108.097 49.1726H108.1C110.26 49.1146 112.474 49.0896 114.729 49.0856H114.786C130.557 49.0596 148.266 50.0416 162.372 47.7446C162.993 45.3796 164.631 44.8106 166.659 44.8876C168.377 44.9546 169.747 47.4366 170.514 47.3346C170.69 47.3116 170.833 47.1506 170.944 46.7916C170.489 45.5936 169.369 44.8976 170.944 43.9356C170.945 43.9356 170.946 43.9366 170.947 43.9366C172.216 43.9156 172.138 45.2446 173.247 45.3836C173.406 45.4026 173.587 45.3996 173.8 45.3636C174.89 45.1856 174.434 43.4596 175.227 42.9836C175.228 42.9836 175.229 42.9846 175.23 42.9846C175.829 43.4576 176.429 43.9306 177.425 44.0056C177.756 44.0306 178.13 44.0126 178.562 43.9356C180.182 41.1126 184.944 41.4296 189.036 41.0786C189.849 41.8536 189.538 43.7506 190.939 43.9356V43.9346C191.089 42.4936 190.411 40.2316 191.891 40.1266L191.892 40.1276C192.517 41.0866 193.41 41.7836 193.797 42.9836C194.049 43.0766 194.235 43.1036 194.374 43.0826C195.203 42.9596 194.294 41.0976 195.128 40.9786C195.265 40.9596 195.452 40.9866 195.702 41.0786H195.703C195.956 41.0046 196.165 40.9736 196.341 40.9776C197.565 41.0026 197.113 42.7026 198.082 42.9836C198.082 42.9826 198.083 42.9816 198.083 42.9816C198.895 42.2086 198.266 39.9936 199.985 40.1266C200.963 40.5776 200.971 41.9986 202.367 42.0306H202.369C203.764 41.9976 203.767 40.5766 204.745 40.1266C204.745 40.1276 204.746 40.1276 204.746 40.1286C204.932 41.5286 206.829 41.2186 207.601 42.0306C207.602 42.0306 207.603 42.0306 207.604 42.0296C208.743 41.3576 209.601 41.2096 210.418 41.2286C211.233 41.2486 212.007 41.4356 212.971 41.4346C213.611 41.4346 214.339 41.3506 215.22 41.0786C215.029 39.3016 215.6 38.2856 217.124 38.2226C217.353 39.5786 218.932 39.5886 219.98 40.1266V40.1246C220.076 39.3866 219.638 38.1156 220.485 38.1316C220.606 38.1346 220.753 38.1626 220.932 38.2226C222.422 38.3996 222.521 39.9676 224.013 40.1436C224.224 40.1686 224.464 40.1656 224.739 40.1266C224.633 37.6386 227.108 37.7336 228.074 36.3176C228.076 36.3176 228.077 36.3186 228.078 36.3186C230.785 36.7826 231.207 39.5356 234.738 39.1746C234.892 37.5916 232.397 38.6586 233.309 36.3176C233.311 36.3176 233.311 36.3176 233.313 36.3186C233.637 36.4026 233.915 36.4436 234.159 36.4496C235.865 36.4896 235.872 34.8326 237.595 34.8896H237.597C238.655 34.9236 239.771 36.2766 240.838 36.3246C241.191 36.3406 241.541 36.2116 241.88 35.8416C240.847 34.9096 238.633 33.3636 239.975 31.5566C239.976 31.5566 239.977 31.5576 239.978 31.5576C241.629 32.1076 243.215 34.3746 245.198 34.3596C245.655 34.3566 246.134 34.2316 246.64 33.9366C245.65 33.6556 245.015 33.0206 244.734 32.0326C246.823 31.6216 248.215 30.5126 250.728 30.5256C251.088 30.5266 251.469 30.5516 251.878 30.6046ZM76.9871 492.496C77.6881 491.537 78.2881 490.477 79.0531 489.578C79.0531 489.577 79.0541 489.576 79.0541 489.576H75.2441C75.3051 489.278 75.3421 489.003 75.3601 488.747C75.6271 484.909 71.4571 485.509 70.9611 482.436C70.9601 482.436 70.9601 482.435 70.9601 482.435C71.4681 481.988 71.1101 480.678 72.3881 481.004H72.3891C70.7861 477.846 68.3541 475.513 65.7231 473.386C65.7231 473.387 65.7241 473.388 65.7241 473.389C67.5051 481.601 72.2401 486.877 74.2921 494.812C75.4701 494.323 76.2771 493.465 76.9821 492.503C76.9831 492.501 76.9851 492.498 76.9871 492.496ZM65.8461 481.34C65.8251 480.675 65.5461 479.976 64.7701 479.1C61.6701 478.861 59.7641 479.812 58.5801 481.479V481.482H58.5811C60.7281 482.126 59.2271 484.575 60.0101 485.768C62.2501 485.499 63.7771 484.92 64.7701 486.718C64.6921 484.093 65.8911 482.801 65.8461 481.34ZM74.2921 481.482H76.1981C76.2431 482.229 76.1341 483.133 77.1501 482.91C76.8511 481.622 77.1341 480.912 77.4901 480.275C77.6331 480.02 77.7861 479.778 77.9211 479.516C77.9881 479.384 78.0491 479.247 78.1011 479.102C76.7811 479.836 75.4671 480.59 74.2921 481.482ZM73.3311 476.851C73.4291 477.355 73.8091 477.569 74.2061 477.539C74.4731 477.52 74.7441 477.392 74.9441 477.171C75.0441 477.061 75.1241 476.927 75.1791 476.771C75.2321 476.617 75.2581 476.439 75.2441 476.245H73.3411C73.3001 476.479 73.3001 476.682 73.3311 476.851ZM69.5391 472.904C69.5411 473.042 69.5401 473.182 69.5391 473.321C69.5351 474.299 69.5381 475.267 70.4841 475.293C71.3501 474.394 71.8041 473.078 72.7421 472.249C72.7501 472.24 72.7591 472.229 72.7671 472.221C73.1521 471.891 73.6171 471.641 74.2231 471.532C74.5261 471.479 74.8641 471.46 75.2441 471.483C75.2891 470.764 75.0361 470.343 74.6191 470.086C74.2031 469.829 73.6191 469.736 73.0061 469.676C72.0851 469.585 71.0931 469.564 70.4781 469.168C70.2741 469.035 70.1121 468.86 70.0081 468.627C69.6151 469.976 67.2631 469.381 67.6271 471.483C68.7051 471.1 69.1791 471.321 69.3851 471.811C69.5081 472.104 69.5351 472.493 69.5391 472.904ZM78.1811 485.434C78.2551 484.703 77.9941 484.06 77.1501 483.862C77.4131 484.785 77.2781 485.303 77.0291 485.708C76.7811 486.113 76.4201 486.406 76.2381 486.878C76.1781 487.035 76.1371 487.213 76.1251 487.421C76.1161 487.629 76.1361 487.867 76.1981 488.146C76.3591 488.141 76.5311 488.076 76.7021 487.968C77.3891 487.536 78.0801 486.408 78.1811 485.434ZM76.1981 474.816C76.8821 475.878 77.9061 476.6 80.0061 476.247C80.0881 475.534 79.8361 474.489 80.4821 474.343C82.4161 474.472 82.9131 476.036 82.8631 478.151C82.3591 478.279 81.6251 478.178 80.9321 478.116C80.6011 478.087 80.2801 478.066 79.9961 478.087H79.9851C79.6951 478.108 79.4471 478.171 79.2721 478.309C79.1741 478.388 79.0991 478.491 79.0541 478.625C80.9741 478.609 81.5601 479.927 83.3391 480.056C83.5881 479.105 83.7381 477.842 83.6951 476.539C83.6231 474.368 83.0161 472.095 81.4341 471.008C81.5751 471.715 81.4901 472.196 81.2571 472.529C81.1011 472.752 80.8811 472.908 80.6181 473.02C79.1671 473.646 76.4241 472.976 76.1981 474.816ZM351.742 64.2086C351.695 65.0046 351.583 65.8596 351.39 66.7886C350.82 69.5286 350.107 73.8276 348.055 76.7876C347.597 77.4496 346.095 77.7966 345.201 78.6916C344.233 79.6556 344.057 80.9646 343.296 81.5486C342.144 82.4276 338.33 83.7716 336.63 84.8806C335.117 85.8666 333.506 86.2516 330.917 87.2616C328.353 88.2616 325.682 89.8506 321.869 90.1186C318.834 94.1826 316.716 101.062 316.57 107.431C316.55 108.339 316.568 109.237 316.632 110.115C316.986 111.19 319.304 110.302 320.44 110.591C321.536 112.367 324.208 112.442 326.153 113.448C326.405 113.577 326.166 114.214 326.63 114.4C327.007 114.551 327.713 114.194 328.057 114.4C328.39 114.599 328.548 116.09 329.011 116.305C329.457 116.511 330.54 116.003 330.915 116.305C333.764 118.616 334.968 123.298 338.532 125.351C340.165 130.575 341.712 136.975 341.415 143.534C341.315 145.721 341.012 147.924 340.436 150.109C339.52 153.592 337.232 158.853 335.676 162.488C335.153 163.706 334.776 165.259 334.725 165.344C334.435 165.814 333.114 165.747 332.821 166.296C332.358 167.162 332.718 168.387 332.345 169.153C332.179 169.497 331.588 169.814 331.394 170.105C330.773 171.036 329.488 172.337 328.538 173.438C328.411 173.587 327.126 174.356 327.109 174.39C327.059 174.5 327.054 174.652 327.067 174.824C327.097 175.166 327.206 175.588 327.208 175.91C327.21 176.07 327.184 176.206 327.109 176.295C326.432 177.094 324.995 177.406 324.253 178.199C322.252 180.34 320.104 183.353 317.59 185.341C317.59 185.343 317.591 185.344 317.591 185.346C318.117 188.15 319.234 190.361 319.969 192.959C325.63 194.121 330.698 195.877 335.68 197.72C336.474 199.932 339.285 201.289 340.44 203.434C340.522 203.586 340.55 203.771 340.547 203.973C340.542 204.374 340.422 204.839 340.391 205.252C340.377 205.457 340.385 205.649 340.44 205.813C341.054 207.599 342.698 209.06 343.298 211.051C343.833 212.829 344.025 214.592 344.016 216.354C343.998 220.4 342.8 224.444 341.392 228.667C339.986 232.885 337.66 235.932 335.204 239.617C333.646 241.952 332.421 244.275 329.965 245.807V245.812V249.14C328.384 248.985 329.448 251.48 327.109 250.568C325.522 255.966 320.869 258.293 319.492 263.899C315.99 265.161 315.497 269.426 313.303 271.993C312.456 272.416 312.093 273.322 310.445 272.943C309.418 276.994 309.816 282.472 307.592 285.322V285.327C307.89 288.718 307.961 292.007 307.932 295.275C307.872 302.519 307.295 309.648 307.415 317.485C307.439 319.11 307.495 320.766 307.592 322.459C307.819 326.506 309.373 330.612 309.496 334.838C309.633 339.628 309.643 344.985 309.615 350.404C309.605 352.288 309.591 354.179 309.574 356.057C309.554 358.413 309.532 360.738 309.514 363.009C309.508 363.778 309.501 364.556 309.496 365.309C309.487 366.436 308.671 366.979 308.544 368.164C308.47 368.849 308.452 369.541 308.474 370.236C308.604 374.408 310.17 378.721 309.836 382.506C309.78 383.137 309.673 383.753 309.496 384.352C305.663 386.609 295.471 386.187 289.499 386.73C285.078 387.137 281.269 388.835 278.07 386.73C273.127 388.664 263.012 389.204 254.74 389.587C249.406 389.835 243.778 390.275 238.079 390.539C218.697 391.439 198.056 391.178 181.42 391.967C179.083 392.078 176.338 391.349 174.278 391.967C171.871 392.693 171.777 395.502 169.04 396.252C168.453 396.948 169.035 398.206 168.565 399.108C168.288 399.637 166.756 400.222 166.183 401.014C164.004 404.028 162.338 407.998 159.518 410.535C159.275 410.754 158.305 410.292 158.091 410.535C153.8 415.416 144.244 419.294 135.237 420.534C134.183 420.679 132.525 420.229 131.429 420.534C126.14 421.998 123.45 427.353 119.526 430.056C119.588 432.064 117.83 432.254 117.613 433.979C117.58 434.226 117.58 434.501 117.62 434.817C114.286 437.989 111.073 441.28 109.051 445.768C106.788 446.363 105.839 448.27 104.289 449.576C104.368 450.13 104.184 450.424 103.813 450.529C103.813 450.53 103.815 450.532 103.815 450.534C105.044 456.604 109.01 459.936 110.003 466.24C110.75 466.604 110.716 467.75 111.908 467.669C111.765 470.031 112.422 471.599 113.811 472.43V472.436C113.825 473.075 113.775 473.779 113.776 474.431C113.779 475.518 113.928 476.459 114.765 476.713C114.765 476.715 114.765 476.717 114.764 476.719C114.714 477.298 114.684 477.858 114.672 478.402C114.605 481.125 114.932 483.437 114.945 485.602C114.95 486.466 114.905 487.307 114.765 488.142C113.991 492.738 109.926 495.698 110.003 500.519C103.713 506.764 100.353 515.944 92.8631 520.991C91.8131 522.48 91.3701 524.578 89.5311 525.276C89.5311 525.278 89.5311 525.28 89.5321 525.282C89.5781 525.487 89.6041 525.674 89.6151 525.843C89.6841 527.02 88.9481 527.393 88.5781 528.131C88.5781 528.133 88.5781 528.134 88.5781 528.135C89.3641 530.456 89.3641 530.758 89.5311 533.847C83.4111 534.943 75.4151 536.017 70.9621 533.37C67.4341 536.364 59.4991 535.576 54.7741 534.32C54.5391 532.333 53.1621 531.487 52.3931 530.037C50.7301 529.845 50.2591 530.491 50.2101 531.346C50.1611 532.199 50.5331 533.259 50.5621 533.895C50.5721 534.075 50.5531 534.223 50.4901 534.32C46.7691 533.916 48.3051 528.252 43.8241 528.607C43.4971 528.939 43.3931 529.28 43.4351 529.621C43.5891 530.87 45.6921 532.113 45.8501 532.956C45.8801 533.107 45.8471 533.245 45.7271 533.368C43.4651 533.168 42.2941 534.061 40.4911 534.318C38.9101 534.247 39.6301 532.941 38.1111 532.414C36.0671 531.706 33.0061 533.447 31.9211 531.464C27.7201 534.785 20.8181 535.513 14.3051 535.271C13.2141 534.943 13.8871 532.491 11.4491 532.416C11.6771 529.969 11.1851 528.236 9.54411 527.657C9.57811 527.401 9.5971 527.146 9.6031 526.895C9.6821 524.362 8.5731 521.987 8.5301 519.812C8.5081 518.725 8.75211 517.687 9.54411 516.704C9.57911 516.528 9.60013 516.354 9.61113 516.181C9.70513 514.441 8.5801 512.843 8.5301 511.462C8.5041 510.771 8.74513 510.138 9.53813 509.566C9.54013 509.564 9.54111 509.564 9.54411 509.562C8.64411 509.27 8.53113 508.196 8.55113 506.986C8.55713 506.584 8.57812 506.167 8.59212 505.76V505.754C8.50612 505.529 8.46212 505.348 8.45012 505.197C8.37412 504.29 9.45812 504.54 9.57612 503.824C9.59612 503.704 9.58811 503.558 9.54411 503.373C7.57111 498.3 9.50912 493.796 7.64012 489.094C7.64012 489.093 7.64012 489.092 7.64012 489.09C8.50212 488.373 8.80711 487.151 8.82811 485.678C8.86911 482.728 7.7651 478.769 7.6811 475.826C7.6391 474.354 7.85112 473.138 8.59212 472.428C8.64112 472.238 8.67412 472.067 8.68812 471.914C8.79812 470.832 8.11012 470.549 7.64012 470.048C7.57212 469.802 7.53611 469.588 7.52611 469.399C7.45411 468.08 8.63111 468.006 8.59111 466.718C8.59111 466.716 8.59212 466.715 8.59212 466.713C7.80212 465.194 7.4461 462.391 7.4651 459.584C7.4851 456.778 7.87911 453.969 8.59111 452.435C8.59111 452.434 8.59112 452.433 8.59212 452.432C8.14912 451.235 7.92711 450.524 7.92711 449.812C7.92611 449.103 8.14611 448.392 8.59111 447.195C8.59111 447.194 8.59112 447.193 8.59212 447.192C7.43212 444.862 7.56812 441.237 7.64012 437.676V437.67C7.67212 437.54 7.68212 437.433 7.67512 437.341C7.62912 436.691 6.72511 436.898 6.68611 436.242V436.241C6.75011 435.651 6.78111 435.028 6.78911 434.384C6.82611 431.801 6.5141 428.871 6.5731 426.312C6.6181 424.394 6.8711 422.685 7.6381 421.486C7.6391 421.485 7.63912 421.483 7.64012 421.482C7.32912 420.998 6.54411 420.99 6.68611 420.054C6.61911 419.867 6.57812 419.708 6.56212 419.573C6.44812 418.626 7.4531 418.803 7.6381 418.152C7.6381 418.151 7.63912 418.15 7.64012 418.149C6.60712 416.934 6.32813 415.141 6.34413 413.073C6.36013 410.593 6.79712 407.715 6.85212 404.961C6.90012 402.664 6.68212 400.453 5.73512 398.629V382.441C4.83512 381.556 4.7211 379.885 4.7411 378.079C4.7471 377.478 4.76912 376.86 4.78312 376.252C5.59412 376.426 5.68212 375.879 5.73512 375.302C11.5361 374.339 12.7621 380.064 15.2571 383.394C17.0471 385.779 19.3511 387.724 20.9711 390.059C22.7961 392.693 23.7901 395.896 26.2071 397.2C26.5361 400.176 28.2881 402.326 30.0151 404.82C30.4111 405.39 31.7191 406.32 31.9211 406.725C32.3621 407.602 31.9111 408.312 32.3961 409.104C34.2181 412.064 35.7781 413.551 37.6351 417.197C43.5441 428.811 50.1111 441.957 56.2031 454.336C57.1191 456.196 58.6631 457.736 59.5361 459.573C61.3211 463.338 61.4371 467.675 64.2971 470.525C65.4261 468.796 66.5221 467.036 69.0571 466.715C70.3201 466.867 68.6121 464.049 70.4861 464.811C73.5421 464.295 72.9241 467.45 74.2951 468.619C75.3951 467.814 76.8691 467.388 79.0561 467.669C79.0891 467.519 79.0991 467.39 79.0941 467.278C79.0061 465.699 75.3061 467.73 75.2101 466.161C75.2031 466.048 75.2141 465.917 75.2461 465.765C76.3091 465.559 76.9451 464.921 77.1521 463.86C80.5241 463.342 82.1391 464.584 84.7681 464.811V466.715C87.4081 466.467 90.1711 471.016 90.4831 473.858C90.5491 474.46 90.5601 475.068 90.5321 475.692C90.4451 477.561 89.9921 479.568 89.5311 481.952C88.2771 488.428 82.2341 492.794 80.9601 497.664C79.4451 498.053 79.0361 499.547 77.1521 499.568C77.1531 499.57 77.1531 499.572 77.1541 499.574C79.1201 504.268 81.3641 508.689 82.8651 513.852C85.6281 512.467 86.9871 508.831 89.0551 506.233C91.3771 503.31 95.1491 499.755 97.1471 495.76C98.0511 493.954 100.897 492.367 101.91 490.046C102.973 487.604 103.407 483.483 103.378 480.365C103.373 479.918 103.361 479.491 103.338 479.094C103.286 478.189 102.566 477.582 102.386 476.713C101.777 473.779 102.112 470.452 101.432 468.145C101.059 466.88 100.11 465.861 99.5291 464.811C99.4301 464.631 99.3751 464.458 99.3451 464.291C99.3091 464.102 99.3001 463.92 99.2881 463.743C99.2711 463.451 99.2441 463.174 99.0531 462.905C96.2651 459.029 94.0301 451.532 90.4831 447.67V444.812C85.6831 437.87 83.0461 428.763 79.0561 421.008C78.8321 420.782 78.7391 420.615 78.7191 420.469C78.6671 420.102 79.0801 419.86 79.0991 419.134C79.1031 418.986 79.0921 418.82 79.0561 418.63C77.2701 418.032 77.1451 415.776 75.2461 415.295C74.9421 410.365 70.8351 409.232 70.4861 404.344C69.3181 403.608 69.4771 401.543 68.1051 401.012C67.8181 397.808 66.1561 395.977 64.2971 394.346C62.8511 390.394 61.3631 386.488 58.5821 383.871C58.2821 380.205 55.8161 378.705 55.2501 375.304C54.8061 375.652 54.5291 376.168 54.2981 376.73C53.9471 376.559 53.8091 376.355 53.7911 376.128C53.7471 375.554 54.4531 374.812 54.4201 373.939C54.4121 373.764 54.3771 373.583 54.2981 373.395C51.4111 369.568 50.0031 364.885 47.1571 361.02C45.5501 358.838 42.7171 355.791 40.4911 353.402V351.02C39.5311 350.395 38.8351 349.504 37.6351 349.117C33.7841 340.431 29.3481 332.326 22.3991 326.74C22.4361 326.465 22.4511 326.214 22.4451 325.983C22.4261 325.286 22.2231 324.773 21.9231 324.359C21.7761 323.715 20.7301 323.965 20.0171 323.884C20.4311 320.14 16.9241 320.312 16.6841 317.22C16.1031 316.531 14.8691 316.498 14.3051 315.791C12.1711 309.516 6.45811 306.815 2.88011 301.984L2.87813 301.982C3.50813 300.98 3.73211 299.893 3.79011 298.76C3.80011 298.6 3.7941 298.435 3.7971 298.271C3.8001 298.055 3.80813 297.839 3.80513 297.618C3.78313 296.544 3.69511 295.445 3.72011 294.354C3.73011 293.88 3.75811 293.405 3.82911 292.937C4.06011 291.454 4.83812 289.828 5.40712 288.076C5.42212 288.028 5.4321 287.979 5.4481 287.931C5.5721 287.54 5.68812 287.145 5.78212 286.742C6.09612 285.383 6.18513 283.955 5.73613 282.468C5.73613 282.466 5.73612 282.464 5.73512 282.462C7.39212 282.691 6.26811 280.14 7.63911 280.083H7.64012C7.47412 279.242 7.44211 278.426 7.45711 277.621C7.52411 274.392 8.71512 271.441 8.59212 268.66V268.654C8.55012 267.746 7.90112 267.373 7.64012 266.273C6.88612 263.124 7.76512 258.887 4.78312 258.18C3.87812 253.857 4.23511 249.513 3.82911 245.325C3.72811 244.273 3.03813 244.676 2.87813 243.896C2.15013 240.344 2.66513 235.92 1.92613 231.994C1.65713 230.554 0.655114 229.113 0.497114 227.709C0.479114 227.545 0.49913 227.391 0.49513 227.23C0.46013 225.698 0.993104 224.297 0.974104 222.476V222.472C0.937104 219.323 -0.164876 215.86 0.0201242 212.955C0.0211242 212.953 0.0201007 212.951 0.0211007 212.949C0.0851007 211.989 0.806104 211.525 0.974104 210.569C1.0621 210.067 1.09411 209.563 1.09611 209.057C1.09811 208.04 0.976131 207.012 0.939131 205.964C0.922131 205.44 0.924104 204.912 0.974104 204.38C1.0621 203.427 1.78613 202.415 1.92613 201.522C2.96013 194.965 2.20513 187.831 2.87813 181.05C3.22713 177.53 4.76012 173.392 5.02812 168.535C5.11712 166.916 5.06612 165.217 4.78312 163.434C4.19312 162.552 3.9531 161.598 3.9311 160.595C3.8601 157.587 5.73411 154.144 5.89711 150.907C5.97211 149.468 5.70612 148.07 4.78312 146.77C4.76812 143.799 4.67912 141.433 4.99412 139.445C5.30812 137.456 6.03012 135.846 7.64012 134.391C7.72412 134.167 7.76811 133.985 7.78111 133.834C7.85311 132.927 6.76913 133.179 6.65413 132.461C6.63513 132.341 6.64111 132.195 6.68611 132.011C8.56311 128.809 8.57811 123.744 11.4491 121.536C11.5301 118.011 12.4701 115.739 13.3521 112.49C13.8491 110.667 14.9831 108.524 15.2571 106.776C15.3181 106.389 15.3241 105.996 15.3061 105.601C15.2681 104.806 15.1321 104.001 15.1291 103.204C15.1281 102.805 15.1611 102.408 15.2571 102.016C15.5241 100.934 16.0851 98.8736 16.2391 96.8046C16.3921 94.7366 16.1401 92.6606 14.7831 91.5426C14.7821 91.5416 14.7821 91.5406 14.7811 91.5406C14.8711 91.1556 15.2591 91.0666 15.2571 90.5886C15.6051 88.3996 17.2101 87.4646 18.1131 85.8296C18.1131 85.8286 18.1141 85.8286 18.1141 85.8276C17.8231 85.1696 17.7011 84.3326 17.7191 83.4186C17.7751 80.6726 19.1031 77.2276 20.9701 75.8306C20.9701 75.8296 20.9701 75.8296 20.9711 75.8296C20.4221 74.1286 20.2201 71.9976 20.3071 69.8086C20.4501 66.1586 21.3951 62.3496 22.8731 60.1196C22.8731 60.1186 22.8741 60.1176 22.8741 60.1176C21.8571 55.8976 22.6491 49.8696 22.3991 44.8816C19.2531 41.3126 20.5561 36.2386 20.0171 30.1226C19.4531 29.1006 17.9551 29.0116 17.1611 28.2186V28.2176C17.3181 26.3676 17.5241 24.7526 17.5291 23.0406C17.5341 21.3256 17.3371 19.5126 16.6841 17.2676C16.4221 16.3586 15.6301 16.1586 15.2571 15.3626C15.1981 15.2356 15.1771 15.0866 15.1781 14.9286C15.1791 14.6096 15.2641 14.2476 15.2861 13.9186C15.3001 13.7536 15.2961 13.5966 15.2571 13.4586C14.9961 12.5176 13.9001 10.8477 13.8861 9.06665C13.8811 8.47265 13.9951 7.86565 14.3051 7.26965C15.7391 6.64065 16.9981 5.83662 18.5901 5.36462C19.6141 2.73762 22.6491 2.12364 24.7801 0.603638C32.2271 -0.717362 39.7531 0.371603 47.1571 1.5556C47.9861 2.9466 49.5531 3.60366 51.9171 3.45966C54.4231 7.14266 58.0101 9.74664 61.9151 12.0306C62.3711 14.1136 63.3271 15.6986 65.2481 16.3146C67.0461 21.4406 71.2841 25.4186 73.3431 30.5986C74.3491 33.1336 73.9771 36.1286 76.2001 38.2166C76.1991 38.2186 76.1991 38.2196 76.1991 38.2216C76.1101 38.5466 76.0611 38.8316 76.0481 39.0826C75.9471 40.8226 77.3821 41.0286 77.1551 42.8936C77.1511 42.9246 77.1571 42.9456 77.1521 42.9776C81.4951 47.9746 92.2241 46.4216 98.5771 43.9296C102.267 39.0536 107.433 35.6466 110.954 30.5986C116.655 28.8386 119.716 24.4407 125.715 22.9807C132.139 18.1387 142.933 17.6646 150.473 13.9346C156.185 13.1436 160.985 11.4336 165.232 9.17365C170.13 9.31065 173.489 7.90765 176.659 6.31665H181.418C182.474 6.57865 182.097 5.40862 182.847 5.36462C197.665 3.73762 213.781 7.54062 228.079 5.36462C236.746 4.04562 250.909 3.33465 259.977 6.31665C260.979 8.48865 263.129 9.51462 265.216 10.6016C267.016 13.0476 267.882 16.5097 267.92 20.1707C267.942 22.3637 267.669 24.6286 267.12 26.7896C264.856 30.2396 261.591 32.6876 259.502 36.3116C254.801 37.4816 253.27 41.8246 248.55 42.9776C247.756 44.4096 246.486 45.3536 245.217 46.3106V46.3156C245.219 46.3166 245.221 46.3166 245.222 46.3176C247.771 47.3586 249.314 46.9656 251.406 45.8396C252.742 45.1216 253.691 44.8526 254.738 43.9356C255.872 42.9436 257.915 43.1776 259.977 42.0316C260.479 41.7506 262.012 40.4156 262.833 40.1266C263.381 39.9346 264.212 40.3686 264.737 40.1266C267.24 38.9716 273.306 36.7976 277.117 36.3176C279.032 36.0756 280.886 36.5126 282.83 36.3176C285.057 36.0936 289.836 34.9266 294.256 35.3656C297.169 35.6546 300.257 36.6686 303.78 37.2696C305.25 37.5196 308.617 38.4796 310.443 39.1746C310.858 39.3316 311.462 39.0096 311.872 39.1746C312.67 39.4936 312.816 39.6746 314.728 40.1266C315.926 40.4086 319.867 41.7506 321.871 42.0306C323.135 42.2076 324.916 41.8046 326.155 42.0306C328.23 42.4096 331.321 42.4436 334.725 42.9836C337.564 43.4336 339.482 45.3396 342.819 45.8396C343.565 47.9506 345.277 49.0956 347.104 50.1246C349.103 55.9016 352.066 58.6346 351.742 64.2086ZM57.6291 266.28L57.6281 266.281C57.6291 266.281 57.6291 266.281 57.6291 266.282V266.28ZM57.6281 266.281L57.6271 266.28C56.0521 264.616 52.2551 265.429 51.9151 267.708V267.71C53.5521 268.841 56.7171 268.349 57.6281 266.281ZM32.8701 259.614C33.4711 259.809 33.8461 260.229 33.8241 261.043C34.3821 261.045 34.9651 261.072 35.5221 261.075C36.9201 261.084 38.1661 260.941 38.4991 259.887C38.5671 259.676 38.5971 259.428 38.5851 259.138C37.7991 258.553 36.6151 258.206 35.5061 258.238C34.3951 258.27 33.3601 258.682 32.8701 259.614ZM314.565 240.686C315.211 240.646 315.688 240.375 315.682 239.617H315.68C316.671 238.288 312.882 237.674 312.347 236.285C311.027 232.367 308.903 229.257 305.683 227.24C305.683 227.239 305.682 227.239 305.682 227.238C305.556 227.907 304.638 227.782 304.253 228.19C306.09 232.704 309.908 235.233 311.395 240.094C311.944 240.164 313.488 240.75 314.565 240.686ZM305.684 222.478C307.56 219.77 309.857 217.486 314.496 217.543C315.16 217.551 315.871 217.607 316.636 217.717C316.83 219.425 319.688 218.473 319.492 220.573H321.394H321.396C322.847 222.771 323.537 225.731 324.251 228.667C323.043 230.95 321.537 232.935 320.919 235.809H320.921C325.026 236.265 324.63 232.218 327.109 231.048C327.905 226.488 326.005 223.051 325.205 221.049C324.562 219.446 324.666 219.66 323.774 218.669C322.214 216.929 323.447 217.185 321.871 216.765C320.513 216.4 316.265 213.48 313.816 213.83C313.18 213.921 312.657 214.221 312.349 214.859C308.169 214.866 302.474 219.687 305.683 222.477C305.683 222.477 305.683 222.478 305.684 222.478ZM321.261 162.352C321.171 162.579 321.048 162.772 320.919 162.964C321.47 163.362 322.193 163.59 323.299 163.44V161.535H321.394C321.404 161.863 321.349 162.124 321.261 162.352ZM320.441 164.392C320.033 164.34 319.663 164.326 319.318 164.338C318.285 164.375 317.49 164.652 316.635 164.868H316.632C313.615 162.285 313.238 157.611 310.441 154.87C310.011 154.447 309.322 154.205 308.604 153.988C308.097 153.835 307.574 153.693 307.112 153.511C306.74 153.365 306.408 153.193 306.156 152.965C305.427 152.302 306.225 151.041 305.261 150.999C305.123 150.993 304.949 151.012 304.729 151.061H304.728C304.537 150.988 304.388 150.957 304.268 150.958C303.558 150.962 303.994 152.111 303.286 152.117C303.168 152.118 303.017 152.087 302.827 152.014C302.826 152.013 302.824 152.014 302.824 152.013C303.484 156.112 308.036 156.324 309.966 159.155C310.779 161.795 312.343 167.558 315.682 168.201C315.819 168.228 316.004 168.249 316.22 168.259C317.724 168.333 320.779 167.9 320.919 165.344C320.548 165.239 320.364 164.945 320.441 164.392ZM324.251 159.631C324.25 159.631 324.25 159.631 324.249 159.631H324.251ZM327.107 143.919C325.314 142.695 324.416 140.579 323.299 138.682C320.831 138.583 319.423 136.972 317.109 136.777C311.12 136.274 306.328 140.441 303.778 144.395C304.268 144.694 304.737 144.848 305.191 144.887C308.368 145.163 310.816 139.861 314.728 139.634H314.73C318.565 139.411 320.007 142.144 323.299 143.919C323.129 146.312 324.305 147.357 325.203 148.68C326.64 153.687 321.353 156.247 324.251 159.631C324.251 159.631 324.251 159.629 324.252 159.629C327.343 157.958 326.53 152.397 328.057 149.156C327.101 148.052 326.911 146.179 327.107 143.919ZM335.678 72.9786H339.488C339.73 75.1246 337.711 75.0116 335.678 74.8826V72.9786Z" fill="#010101"/>
<path d="M112.118 62V317.405M112.118 317.405L87 378M112.118 317.405H295.5" stroke="black" stroke-width="4" stroke-linecap="round"/>
</g>
<defs>
<clipPath id="clip0_346_2">
<rect width="351.767" height="535.439" fill="white"/>
</clipPath>
</defs>
</svg>
